<svg width="471" height="434" viewBox="0 0 471 434" fill="none" xmlns="http://www.w3.org/2000/svg">
<path d="M80.3729 254.273L12.3341 267.006L22.5139 321.402L90.5527 308.669L80.3729 254.273Z" fill="#F5F5F5"/>
<path d="M80.3903 254.29L80.0603 254.37L79.0603 254.56L75.3703 255.28L61.4403 257.95L12.3903 267.25L12.5803 266.97C15.5803 283.16 19.1003 301.72 22.7903 321.36L22.4803 321.14L90.4803 308.46L90.3103 308.72C87.3103 292.34 84.7903 278.77 83.0403 269.26C82.1803 264.51 81.5003 260.78 81.0403 258.26C80.8103 256.99 80.6403 256.02 80.5203 255.34C80.4003 254.66 80.3503 254.34 80.3503 254.34C80.3503 254.34 80.4303 254.66 80.5503 255.34L81.1203 258.21C81.6103 260.76 82.3203 264.47 83.2303 269.21C85.0403 278.74 87.6203 292.35 90.7403 308.77L90.7903 308.98L90.5703 309.03L22.5303 321.73L22.2703 321.78L22.2203 321.51C18.5603 301.87 15.0903 283.31 12.0703 267.11V266.88L12.3103 266.83L61.5503 257.73L75.4403 255.19L79.1103 254.53L80.0403 254.37L80.3903 254.29Z" fill="#E0E0E0"/>
<path d="M78.5772 258.15L15.3155 269.989L24.2132 317.533L87.4749 305.694L78.5772 258.15Z" fill="#EBEBEB"/>
<path d="M24.1903 317.55L40.7603 283.86L57.9003 299.79L65.3403 288.17L87.4503 305.72L24.1903 317.55Z" fill="#E0E0E0"/>
<path d="M59.5803 276.6C59.7648 277.586 59.6529 278.604 59.2588 279.526C58.8648 280.447 58.2063 281.232 57.3665 281.78C56.5267 282.327 55.5434 282.614 54.5409 282.603C53.5384 282.592 52.5616 282.283 51.7342 281.717C50.9067 281.151 50.2656 280.353 49.892 279.422C49.5184 278.492 49.429 277.472 49.6352 276.49C49.8414 275.509 50.3338 274.611 51.0502 273.91C51.7667 273.209 52.675 272.735 53.6603 272.55C54.315 272.427 54.9875 272.434 55.6394 272.571C56.2913 272.708 56.9098 272.972 57.4596 273.348C58.0093 273.725 58.4796 274.205 58.8435 274.763C59.2074 275.321 59.4578 275.945 59.5803 276.6Z" fill="#E0E0E0"/>
<path d="M182.313 26.3773L147.479 218.82L289.964 244.611L324.798 52.1684L182.313 26.3773Z" fill="#FAFAFA"/>
<path d="M289.96 244.62C289.96 244.62 290.01 244.3 290.11 243.7L290.59 240.99C291.01 238.61 291.64 235.09 292.45 230.52C294.1 221.36 296.5 207.98 299.54 191.04L324.54 52.1399L324.74 52.4199L182.29 26.6499L182.6 26.4299C169.6 98.2199 157.53 164.72 147.71 218.86L147.54 218.61L251.07 237.47L279.8 242.73L287.36 244.13C289.07 244.44 289.96 244.62 289.96 244.62L287.4 244.18L279.87 242.84L251.14 237.73L147.44 219.07H147.23V218.86C157.02 164.7 169.05 98.1999 182.03 26.4099V26.1499H182.3L324.84 51.9399L325.08 51.9899V52.2199C314.71 109.22 305.95 157.35 299.79 191.22L292.59 230.62C291.75 235.17 291.11 238.62 290.67 241.04C290.45 242.21 290.29 243.1 290.18 243.71L289.96 244.62Z" fill="#E0E0E0"/>
<path d="M254.846 57.6649L194.349 46.7144L184.809 99.4179L245.306 110.368L254.846 57.6649Z" fill="#E0E0E0"/>
<path d="M303.098 66.3988L264.367 59.3882L263.122 66.2664L301.852 73.277L303.098 66.3988Z" fill="#E0E0E0"/>
<path d="M294.167 130.306L183.623 110.296L182.378 117.174L292.922 137.184L294.167 130.306Z" fill="#E0E0E0"/>
<path d="M291.985 142.412L181.441 122.402L180.196 129.281L290.74 149.29L291.985 142.412Z" fill="#E0E0E0"/>
<path d="M289.795 154.518L179.251 134.509L178.006 141.387L288.55 161.396L289.795 154.518Z" fill="#E0E0E0"/>
<path d="M287.593 166.623L177.049 146.613L175.804 153.492L286.348 173.501L287.593 166.623Z" fill="#E0E0E0"/>
<path d="M285.403 178.719L174.859 158.71L173.614 165.588L284.158 185.597L285.403 178.719Z" fill="#E0E0E0"/>
<path d="M277.891 220.228L167.348 200.219L166.103 207.097L276.646 227.106L277.891 220.228Z" fill="#E0E0E0"/>
<path d="M233.36 181.806L172.676 170.821L171.431 177.7L232.115 188.684L233.36 181.806Z" fill="#E0E0E0"/>
<path d="M301.087 77.5328L262.357 70.5222L261.112 77.4004L299.842 84.4111L301.087 77.5328Z" fill="#E0E0E0"/>
<path d="M297.605 88.8072L259.032 81.7224L257.774 88.5726L296.347 95.6574L297.605 88.8072Z" fill="#E0E0E0"/>
<path d="M282.207 97.0943L258.325 92.7715L257.08 99.6497L280.962 103.973L282.207 97.0943Z" fill="#E0E0E0"/>
<path d="M354.39 25.49L342.1 25.99L340.77 29.43C340.391 30.3261 340.187 31.2869 340.17 32.26C340.158 32.6903 340.265 33.1155 340.481 33.4881C340.696 33.8607 341.011 34.1661 341.39 34.37C342.501 34.7243 343.665 34.8833 344.83 34.84V35.84L333.39 36.26V35.26C334.553 35.0587 335.611 34.4659 336.39 33.58C337.574 31.9403 338.507 30.1339 339.16 28.22L350.39 0H350.88L364.57 28C365.904 30.6667 366.957 32.3333 367.73 33C368.446 33.551 369.327 33.8435 370.23 33.83V34.77L353.4 35.45V34.5H354.1C355.086 34.546 356.064 34.3101 356.92 33.82C357.102 33.6811 357.246 33.4978 357.337 33.2877C357.428 33.0777 357.463 32.8478 357.44 32.62C357.424 32.2989 357.36 31.9821 357.25 31.68C357.25 31.53 356.92 30.89 356.4 29.79L354.39 25.49ZM353.44 23.63L347.78 11.85L342.92 24.05L353.44 23.63Z" fill="#E0E0E0"/>
<path d="M377.663 98.151L321.455 116.925L336.466 161.864L392.673 143.09L377.663 98.151Z" fill="#F5F5F5"/>
<path d="M376.58 101.652L324.327 119.105L337.446 158.382L389.699 140.929L376.58 101.652Z" fill="#EBEBEB"/>
<path d="M337.45 158.4L347.55 127.89L363.95 139.39L368.89 128.66L389.7 140.95L337.45 158.4Z" fill="#E0E0E0"/>
<path d="M362.65 119.52C362.923 120.334 362.947 121.211 362.721 122.039C362.495 122.867 362.029 123.61 361.381 124.173C360.733 124.736 359.932 125.094 359.081 125.202C358.229 125.31 357.365 125.163 356.596 124.78C355.828 124.396 355.191 123.794 354.765 123.048C354.34 122.303 354.145 121.448 354.205 120.591C354.266 119.735 354.579 118.916 355.105 118.237C355.631 117.559 356.346 117.052 357.16 116.78C357.701 116.598 358.272 116.525 358.84 116.564C359.409 116.604 359.964 116.755 360.474 117.01C360.984 117.264 361.439 117.617 361.813 118.048C362.186 118.479 362.471 118.979 362.65 119.52Z" fill="#E0E0E0"/>
<path d="M379.223 45.8885L365.464 116.144L453.335 133.352L467.094 63.0962L379.223 45.8885Z" fill="#F5F5F5"/>
<path d="M467.11 63.1001L466.68 63.0301L465.44 62.8101L460.66 61.9001L442.66 58.4401L379.19 46.1301L379.47 45.9401C375.38 66.8501 370.7 90.8201 365.74 116.19L365.53 115.87L453.39 133.14L453.13 133.31C457.32 112.17 460.79 94.6401 463.22 82.3901C464.45 76.2601 465.41 71.4501 466.07 68.1601C466.4 66.5201 466.65 65.2701 466.83 64.4001C467.01 63.5301 467.11 63.1001 467.11 63.1001C467.11 63.1001 467.04 63.5301 466.88 64.3701C466.72 65.2101 466.49 66.4701 466.18 68.0901C465.55 71.3701 464.63 76.1701 463.46 82.2901C461.08 94.5901 457.67 112.18 453.57 133.4L453.52 133.62H453.31L365.39 116.41L365.13 116.36L365.18 116.1C370.18 90.7401 374.87 66.7701 378.97 45.8601L379.02 45.6201L379.25 45.6701L442.86 58.2301L460.78 61.8101L465.51 62.8101L466.71 63.0601L467.11 63.1001Z" fill="#E0E0E0"/>
<path d="M381.396 50.9069L369.371 112.311L451.069 128.309L463.094 66.9058L381.396 50.9069Z" fill="#EBEBEB"/>
<path d="M369.37 112.32L405.38 79.74L418.38 107.08L432.87 96.66L451.07 128.32L369.37 112.32Z" fill="#E0E0E0"/>
<path d="M431.48 79.99C431.233 81.2639 430.613 82.4357 429.699 83.3572C428.785 84.2787 427.618 84.9084 426.347 85.1667C425.075 85.425 423.755 85.3003 422.554 84.8083C421.353 84.3164 420.325 83.4792 419.6 82.4029C418.875 81.3266 418.486 80.0593 418.481 78.7616C418.476 77.4638 418.857 76.1938 419.574 75.1123C420.291 74.0308 421.313 73.1863 422.51 72.6857C423.708 72.1851 425.027 72.0509 426.3 72.3C427.146 72.4641 427.951 72.7932 428.669 73.2687C429.387 73.7441 430.004 74.3565 430.485 75.0708C430.966 75.785 431.302 76.5872 431.473 77.4313C431.643 78.2754 431.646 79.1449 431.48 79.99Z" fill="#E0E0E0"/>
<path d="M41.1303 6.93997L45.6703 59.92L66.2203 65.49L106.08 60.86L100.47 1.21997L41.1303 6.93997Z" fill="#F5F5F5"/>
<path d="M51.9403 55.1599L45.6803 59.9199C48.0597 61.9829 50.8419 63.5289 53.8503 64.4599C57.8722 65.5788 62.0709 65.9183 66.2203 65.4599C66.2203 65.4599 56.7303 63.8499 51.9403 55.1599Z" fill="#EBEBEB"/>
<path d="M95.6703 20.7299C95.6703 20.8299 85.5903 21.8799 73.1403 23.0899C60.6903 24.2999 50.5703 25.1999 50.5603 25.0899C50.5503 24.9799 60.6403 23.9099 73.1003 22.7299C85.5603 21.5499 95.6603 20.5999 95.6703 20.7299Z" fill="#E0E0E0"/>
<path d="M96.2603 28.85C96.2603 28.95 86.1803 30.01 73.7303 31.22C61.2803 32.43 51.1603 33.32 51.1503 33.22C51.1403 33.12 61.2303 32.06 73.6903 30.85C86.1503 29.64 96.2503 28.73 96.2603 28.85Z" fill="#E0E0E0"/>
<path d="M97.2103 36.0399C97.2103 36.1399 87.1303 37.1999 74.6803 38.3999C62.2303 39.5999 52.1203 40.5099 52.1103 40.3999C52.1003 40.2899 62.1803 39.2499 74.6403 38.0399C87.1003 36.8299 97.2003 35.9399 97.2103 36.0399Z" fill="#E0E0E0"/>
<path d="M97.8403 42.99C97.8403 43.08 87.7603 44.14 75.3003 45.35C62.8403 46.56 52.7403 47.46 52.7303 47.35C52.7203 47.24 62.8103 46.19 75.2703 44.99C87.7303 43.79 97.8303 42.89 97.8403 42.99Z" fill="#E0E0E0"/>
<path d="M470.78 433.63C470.78 433.77 365.38 433.89 235.4 433.89C105.42 433.89 0 433.77 0 433.63C0 433.49 105.37 433.36 235.4 433.36C365.43 433.36 470.78 433.48 470.78 433.63Z" fill="#263238"/>
<path d="M28.3303 99.0799L70.4903 340.5L248.27 312.59L256.51 292.68L208.41 69.45L41.7703 79.39L28.3303 99.0799Z" fill="#E0E0E0"/>
<path opacity="0.3" d="M70.4903 340.5L83.1203 321.15L40.9603 79.72L28.3303 99.08L70.4903 340.5Z" fill="black"/>
<path d="M40.9603 79.72L83.1203 321.15L256.51 292.68L212.7 55.23L40.9603 79.72Z" fill="#FAFAFA"/>
<path d="M40.9603 79.73L212.67 55.03H212.88V55.23C225.17 121.54 240.39 203.73 256.77 292.63L256.82 292.9L256.55 292.95L253.69 293.42L83.1603 321.42H82.9203V321.18C58.1203 178.59 41.3303 81.85 40.9603 79.73C41.3303 81.86 58.3203 178.56 83.3603 321.11L83.0803 320.92L253.6 292.92L256.46 292.45L256.24 292.76C239.86 203.85 224.72 121.66 212.49 55.3L212.73 55.47L40.9603 79.73Z" fill="#263238"/>
<path d="M179.98 194.055C182.13 177.877 170.758 163.02 154.58 160.87C138.402 158.72 123.545 170.092 121.395 186.27C119.245 202.447 130.617 217.305 146.794 219.455C162.972 221.605 177.83 210.233 179.98 194.055Z" fill="#C8B6FF"/>
<path d="M137.13 197.91L135.79 189.4L165.26 184.73L166.52 192.73C166.52 192.73 164.72 199.61 152.8 201.49C140.88 203.37 137.13 197.91 137.13 197.91Z" fill="white"/>
<path d="M131.14 189.45L152.17 193.19L170.41 182.93L149.35 179.6L131.14 189.45Z" fill="white"/>
<path d="M189.98 106.903L85.4865 123.416C84.2045 123.618 83.3295 124.822 83.5321 126.104L83.8849 128.336C84.0874 129.618 85.2909 130.493 86.5729 130.29L191.066 113.778C192.348 113.575 193.223 112.372 193.021 111.09L192.668 108.857C192.465 107.575 191.262 106.7 189.98 106.903Z" fill="#E0E0E0"/>
<path d="M173.448 124.284L107.181 134.756C105.899 134.959 105.024 136.163 105.226 137.444L105.579 139.677C105.782 140.959 106.985 141.834 108.267 141.631L174.535 131.159C175.817 130.957 176.692 129.753 176.489 128.471L176.136 126.239C175.934 124.957 174.73 124.082 173.448 124.284Z" fill="#E0E0E0"/>
<path d="M197.317 272.415L131.05 282.887C129.768 283.089 128.893 284.293 129.095 285.575L129.448 287.807C129.651 289.089 130.854 289.964 132.136 289.761L198.404 279.289C199.686 279.087 200.561 277.883 200.358 276.601L200.005 274.369C199.803 273.087 198.599 272.212 197.317 272.415Z" fill="#E0E0E0"/>
<path d="M247.58 299.39L246.74 299.55L244.26 299.98L234.67 301.58L199.06 307.42L78.7603 326.97L78.5003 327.02V326.76C76.8203 317.21 75.0503 307.21 73.2503 297.02C63.5703 242.27 54.8503 192.73 48.5403 156.84C45.4103 138.9 42.8803 124.39 41.1203 114.35C40.2603 109.35 39.5903 105.44 39.1203 102.79C38.9003 101.47 38.7303 100.47 38.6103 99.79C38.4903 99.11 38.4603 98.79 38.4603 98.79C38.4603 98.79 38.5403 99.14 38.6703 99.79C38.8003 100.44 38.9803 101.48 39.2203 102.79C39.7003 105.44 40.4003 109.33 41.3103 114.33C43.1003 124.33 45.6903 138.87 48.8903 156.79C55.2403 192.67 64.0203 242.21 73.7103 296.95C75.5103 307.13 77.2703 317.14 78.9603 326.69L78.6503 326.47L198.99 307.09L234.62 301.41L244.22 299.9L246.71 299.52L247.58 299.39Z" fill="#263238"/>
<path d="M234.39 308.47L233.6 308.63L231.26 309.04L222.2 310.58L188.52 316.2L74.2203 335.12H73.9603V334.87L67.3903 299.2C57.6003 245.2 48.7403 196.35 42.3203 160.97C39.1403 143.29 36.5603 128.97 34.7803 119.07C33.9103 114.13 33.2203 110.29 32.7803 107.67C32.5603 106.38 32.3803 105.39 32.2703 104.67C32.1603 103.95 32.1103 103.67 32.1103 103.67C32.1103 103.67 32.1903 104 32.3203 104.67L32.8903 107.67C33.3703 110.28 34.0903 114.11 35.0103 119.04L42.7103 160.91C49.1703 196.29 58.0903 245.14 67.9403 299.11C70.1603 311.34 72.3403 323.31 74.4303 334.82L74.1303 334.61L188.44 315.87L222.14 310.4L231.21 308.95L233.56 308.59L234.39 308.47Z" fill="#263238"/>
<path d="M45.1503 181.96L41.2403 187.48L50.7303 244.37L56.3803 246.29L45.1503 181.96Z" fill="#263238"/>
<path d="M72.2289 177.223L45.1589 181.952L56.3971 246.278L83.4671 241.548L72.2289 177.223Z" fill="#263238"/>
<path d="M73.0917 174.728L71.3284 175.036C70.3219 175.211 69.6483 176.17 69.824 177.176L81.1954 242.331C81.371 243.338 82.3294 244.011 83.3359 243.836L85.0992 243.528C86.1058 243.352 86.7793 242.394 86.6036 241.387L75.2322 176.232C75.0566 175.226 74.0982 174.552 73.0917 174.728Z" fill="#263238"/>
<path d="M40.4703 228.5C37.4707 228.488 34.5768 227.391 32.3233 225.411C30.0697 223.431 28.6087 220.703 28.2103 217.73C27.8664 215.19 28.318 212.606 29.5031 210.333C30.6882 208.061 32.5484 206.211 34.8279 205.039C37.1073 203.867 39.694 203.43 42.232 203.788C44.7699 204.147 47.1345 205.283 49.0003 207.04L65.9003 197.44C66.2237 197.257 66.5866 197.154 66.9582 197.14C67.3298 197.126 67.6992 197.202 68.0355 197.36C68.3717 197.519 68.6649 197.757 68.8902 198.052C69.1155 198.348 69.2665 198.694 69.3303 199.06L73.3303 221.95C73.3961 222.314 73.3735 222.689 73.2643 223.043C73.1551 223.396 72.9625 223.718 72.7027 223.982C72.443 224.246 72.1237 224.443 71.7717 224.558C71.4198 224.672 71.0454 224.7 70.6803 224.64L51.6003 221.64C50.5673 223.708 48.9788 225.446 47.0129 226.662C45.047 227.877 42.7814 228.52 40.4703 228.52V228.5ZM40.4703 205.69C39.9681 205.687 39.4666 205.724 38.9703 205.8C36.2801 206.237 33.8624 207.696 32.2211 209.872C30.5798 212.048 29.8416 214.773 30.1603 217.48C30.4632 219.744 31.5028 221.845 33.1187 223.459C34.7345 225.073 36.8367 226.11 39.1007 226.41C41.3647 226.711 43.6646 226.257 45.6454 225.121C47.6261 223.984 49.1776 222.226 50.0603 220.12L50.3603 219.4L71.0003 222.73C71.0492 222.741 71.1001 222.738 71.1476 222.722C71.195 222.706 71.2374 222.678 71.2703 222.64C71.3057 222.606 71.3324 222.563 71.3481 222.516C71.3638 222.469 71.3679 222.419 71.3603 222.37L67.3603 199.47C67.3507 199.42 67.3293 199.373 67.298 199.333C67.2667 199.293 67.2264 199.261 67.1803 199.24C67.1353 199.217 67.0857 199.205 67.0353 199.205C66.9849 199.205 66.9352 199.217 66.8903 199.24L48.6403 209.56L48.1003 208.99C47.1226 207.957 45.9441 207.135 44.6372 206.575C43.3302 206.014 41.9224 205.727 40.5003 205.73L40.4703 205.69Z" fill="#455A64"/>
<path d="M81.0703 241.48C81.0039 241.271 80.957 241.057 80.9303 240.84C80.8403 240.36 80.7303 239.75 80.5803 239C80.2803 237.33 79.8603 235 79.3403 232.2C78.3403 226.41 76.9003 218.51 75.3403 209.78C73.7803 201.05 72.4503 193.13 71.4503 187.32C70.9803 184.5 70.6003 182.19 70.3303 180.51C70.2103 179.75 70.1203 179.13 70.0503 178.65C70.0035 178.437 69.9833 178.218 69.9903 178C70.0583 178.206 70.1118 178.417 70.1503 178.63C70.2503 179.11 70.3803 179.72 70.5303 180.47C70.8503 182.14 71.2903 184.47 71.8203 187.26C72.8903 192.99 74.3203 200.92 75.8203 209.68C77.3203 218.44 78.7203 226.39 79.6603 232.14C80.1403 235.02 80.5003 237.35 80.7403 238.96C80.8503 239.77 80.9503 240.39 80.9903 240.83C81.0436 241.043 81.0705 241.261 81.0703 241.48Z" fill="#455A64"/>
<path d="M55.8403 246.51C55.7809 246.296 55.7342 246.079 55.7003 245.86C55.6103 245.39 55.5003 244.78 55.3603 244.02C55.0503 242.35 54.6303 240.02 54.1103 237.23C53.1103 231.43 51.6703 223.53 50.1103 214.8C48.5503 206.07 47.2303 198.15 46.2203 192.35C45.7503 189.52 45.3703 187.21 45.1003 185.54C44.9803 184.77 44.8903 184.16 44.8203 183.68C44.7733 183.463 44.7532 183.242 44.7603 183.02C44.836 183.228 44.8929 183.442 44.9303 183.66C45.0203 184.14 45.1503 184.75 45.3003 185.5C45.6203 187.17 46.0603 189.5 46.5903 192.28C47.6603 198.02 49.0903 205.94 50.5903 214.71C52.0903 223.48 53.4903 231.41 54.4403 237.16C54.9103 240.04 55.2803 242.37 55.5103 243.99C55.6203 244.8 55.7203 245.42 55.7603 245.85C55.8136 246.066 55.8405 246.288 55.8403 246.51Z" fill="#455A64"/>
<path d="M170.39 182.93C169.955 183.263 169.493 183.561 169.01 183.82L165.15 186.09C161.87 187.99 157.32 190.58 152.28 193.42L152.19 193.47H152.1H151.89C146.14 192.47 140.89 191.47 137.19 190.78L132.74 189.91C132.189 189.825 131.647 189.691 131.12 189.51C131.677 189.535 132.232 189.598 132.78 189.7L137.25 190.41C141.03 191.03 146.25 191.93 151.99 192.95H152.19H152.01C157.06 190.12 161.64 187.58 165.01 185.76L168.96 183.64C169.414 183.36 169.893 183.122 170.39 182.93Z" fill="#263238"/>
<path d="M106.642 100.055L106.345 98.2176L115.004 96.8182L115.301 98.656L112.073 99.1776L113.48 107.882L111.277 108.239L109.87 99.5337L106.642 100.055ZM118.134 107.13L116.43 96.5878L118.659 96.2275L119.362 100.577L123.887 99.8461L123.184 95.4962L125.408 95.1368L127.111 105.679L124.888 106.039L124.184 101.684L119.659 102.415L120.363 106.77L118.134 107.13ZM128.949 105.382L127.245 94.8398L134.349 93.6917L134.646 95.5294L129.771 96.3173L130.177 98.8294L134.687 98.1006L134.984 99.9384L130.474 100.667L130.881 103.184L135.777 102.393L136.074 104.231L128.949 105.382ZM142.33 95.513C142.222 95.1044 141.993 94.8104 141.644 94.6309C141.294 94.4515 140.852 94.405 140.317 94.4915C139.953 94.5503 139.654 94.6514 139.42 94.7949C139.186 94.9349 139.016 95.1049 138.911 95.305C138.809 95.5046 138.777 95.7176 138.814 95.9441C138.837 96.1339 138.903 96.2923 139.012 96.4191C139.124 96.5454 139.265 96.6475 139.436 96.7255C139.607 96.8001 139.799 96.8588 140.014 96.9016C140.228 96.9409 140.454 96.9677 140.693 96.982L141.677 97.0555C142.153 97.0841 142.597 97.1532 143.009 97.2626C143.422 97.3721 143.789 97.5294 144.11 97.7344C144.432 97.9394 144.698 98.1994 144.907 98.5142C145.12 98.8284 145.264 99.2049 145.338 99.6436C145.439 100.289 145.365 100.875 145.115 101.402C144.869 101.924 144.461 102.365 143.892 102.724C143.326 103.08 142.614 103.327 141.756 103.466C140.905 103.603 140.143 103.593 139.469 103.434C138.799 103.275 138.246 102.968 137.81 102.514C137.377 102.055 137.09 101.448 136.95 100.693L139.107 100.344C139.189 100.694 139.337 100.973 139.554 101.181C139.774 101.385 140.044 101.522 140.366 101.593C140.69 101.661 141.044 101.663 141.429 101.601C141.806 101.54 142.125 101.432 142.385 101.278C142.649 101.122 142.842 100.934 142.965 100.714C143.088 100.493 143.129 100.256 143.088 100.002C143.049 99.7652 142.947 99.5775 142.78 99.439C142.617 99.2999 142.392 99.1953 142.106 99.1253C141.824 99.0548 141.483 99.0043 141.083 98.9737L139.889 98.871C138.965 98.7984 138.209 98.5738 137.619 98.1971C137.03 97.8205 136.675 97.2423 136.552 96.4627C136.445 95.825 136.525 95.2399 136.791 94.7074C137.061 94.1743 137.476 93.7251 138.037 93.3598C138.597 92.9945 139.262 92.7498 140.031 92.6255C140.813 92.4991 141.518 92.5225 142.145 92.6959C142.775 92.8688 143.291 93.1674 143.694 93.5917C144.098 94.016 144.355 94.5414 144.467 95.1677L142.33 95.513ZM147.849 91.5099L149.553 102.052L147.324 102.413L145.62 91.8701L147.849 91.5099ZM155.892 93.3212C155.784 92.9126 155.555 92.6186 155.206 92.4391C154.856 92.2597 154.414 92.2132 153.878 92.2997C153.515 92.3585 153.216 92.4596 152.982 92.6031C152.747 92.7431 152.578 92.9131 152.473 93.1132C152.371 93.3128 152.339 93.5258 152.375 93.7523C152.399 93.9421 152.465 94.1005 152.574 94.2273C152.686 94.3536 152.827 94.4557 152.998 94.5337C153.169 94.6083 153.361 94.667 153.576 94.7098C153.79 94.7491 154.016 94.7759 154.254 94.7902L155.238 94.8637C155.715 94.8923 156.159 94.9614 156.571 95.0708C156.983 95.1803 157.35 95.3376 157.672 95.5426C157.994 95.7476 158.26 96.0076 158.469 96.3224C158.682 96.6366 158.825 97.0131 158.9 97.4518C159.001 98.0975 158.926 98.6835 158.677 99.2098C158.43 99.7321 158.023 100.173 157.454 100.533C156.888 100.888 156.176 101.135 155.318 101.274C154.467 101.411 153.705 101.401 153.031 101.242C152.361 101.083 151.808 100.776 151.372 100.322C150.938 99.8636 150.652 99.2567 150.512 98.501L152.669 98.1524C152.75 98.502 152.899 98.7808 153.116 98.9887C153.336 99.1927 153.606 99.3303 153.927 99.4017C154.252 99.469 154.606 99.4716 154.99 99.4095C155.368 99.3484 155.687 99.2406 155.947 99.0858C156.211 98.9305 156.404 98.7426 156.527 98.522C156.65 98.3014 156.69 98.0642 156.649 97.8102C156.611 97.5734 156.509 97.3857 156.342 97.2472C156.179 97.1081 155.954 97.0035 155.668 96.9335C155.385 96.863 155.044 96.8124 154.645 96.7819L153.451 96.6792C152.527 96.6066 151.77 96.382 151.181 96.0053C150.592 95.6287 150.236 95.0505 150.114 94.2709C150.007 93.6332 150.087 93.048 150.353 92.5156C150.623 91.9825 151.038 91.5333 151.598 91.168C152.159 90.8027 152.824 90.558 153.593 90.4337C154.375 90.3073 155.08 90.3307 155.706 90.5041C156.336 90.677 156.853 90.9756 157.256 91.3999C157.659 91.8242 157.917 92.3496 158.029 92.9759L155.892 93.3212Z" fill="#263238"/>
<path d="M185.57 299.52H270.83V344.26H185.57C180.889 344.26 176.4 342.4 173.09 339.09C169.78 335.78 167.92 331.291 167.92 326.61V317.16C167.92 312.479 169.78 307.99 173.09 304.68C176.4 301.37 180.889 299.51 185.57 299.51V299.52Z" fill="#C8B6FF"/>
<path d="M248.54 299.52H428.39C429.167 299.52 429.913 299.829 430.462 300.378C431.012 300.928 431.32 301.673 431.32 302.45V304.02C431.32 304.797 431.012 305.542 430.462 306.092C429.913 306.641 429.167 306.95 428.39 306.95H248.54V299.52Z" fill="#C8B6FF"/>
<path d="M248.54 336.84H428.39C428.775 336.84 429.156 336.916 429.512 337.063C429.867 337.21 430.19 337.426 430.462 337.698C430.734 337.97 430.95 338.293 431.097 338.649C431.244 339.004 431.32 339.385 431.32 339.77V341.34C431.32 342.117 431.012 342.862 430.462 343.412C429.913 343.961 429.167 344.27 428.39 344.27H248.54V336.84Z" fill="#C8B6FF"/>
<path d="M425.85 336.84H268.94C266.977 336.84 265.034 336.453 263.221 335.702C261.407 334.95 259.76 333.849 258.373 332.461C256.985 331.072 255.885 329.424 255.135 327.61C254.384 325.797 253.999 323.853 254 321.89C254 317.928 255.574 314.128 258.376 311.326C261.178 308.524 264.978 306.95 268.94 306.95H425.85C423.771 311.658 422.698 316.748 422.698 321.895C422.698 327.042 423.771 332.132 425.85 336.84Z" fill="#F5F5F5"/>
<path opacity="0.3" d="M254 344.27H185.92C181.146 344.27 176.568 342.374 173.192 338.998C169.817 335.622 167.92 331.044 167.92 326.27V317.38C167.92 312.643 169.802 308.1 173.151 304.751C176.501 301.402 181.044 299.52 185.78 299.52H255.69C239.5 309.34 240.71 332.84 254 344.27Z" fill="black"/>
<path d="M406.79 323.28C406.79 323.43 374.58 323.55 334.86 323.55C295.14 323.55 262.93 323.43 262.93 323.28C262.93 323.13 295.13 323.01 334.86 323.01C374.59 323.01 406.79 323.13 406.79 323.28Z" fill="#263238"/>
<path d="M421.59 329.92C421.59 330.07 389.38 330.19 349.66 330.19C309.94 330.19 277.73 330.07 277.73 329.92C277.73 329.77 309.93 329.66 349.66 329.66C389.39 329.66 421.59 329.78 421.59 329.92Z" fill="#263238"/>
<path d="M417.23 313.86C417.23 314.01 385.02 314.13 345.3 314.13C305.58 314.13 273.36 314.01 273.36 313.86C273.36 313.71 305.56 313.59 345.3 313.59C385.04 313.59 417.23 313.73 417.23 313.86Z" fill="#263238"/>
<path d="M246.12 341.13C246.12 341.28 231.04 341.4 212.45 341.4C193.86 341.4 178.78 341.28 178.78 341.13C178.78 340.98 193.85 340.86 212.45 340.86C231.05 340.86 246.12 340.98 246.12 341.13Z" fill="#263238"/>
<path d="M246.12 303.24C246.12 303.39 231.04 303.51 212.45 303.51C193.86 303.51 178.78 303.39 178.78 303.24C178.78 303.09 193.85 302.97 212.45 302.97C231.05 302.97 246.12 303.09 246.12 303.24Z" fill="#263238"/>
<path d="M147.93 375.67H262.82V433.29H147.93C143.249 433.29 138.76 431.43 135.45 428.12C132.14 424.81 130.28 420.321 130.28 415.64V393.32C130.28 388.639 132.14 384.149 135.45 380.839C138.76 377.529 143.249 375.67 147.93 375.67Z" fill="#C8B6FF"/>
<path d="M234.11 375.67H466.54C467.317 375.67 468.063 375.979 468.612 376.528C469.162 377.078 469.47 377.823 469.47 378.6V382.31C469.47 383.087 469.162 383.832 468.612 384.382C468.063 384.931 467.317 385.24 466.54 385.24H234.11V375.67Z" fill="#C8B6FF"/>
<path d="M234.11 423.73H466.54C467.317 423.73 468.063 424.039 468.612 424.588C469.162 425.138 469.47 425.883 469.47 426.66V430.37C469.47 431.147 469.162 431.892 468.612 432.442C468.063 432.991 467.317 433.3 466.54 433.3H234.11V423.73Z" fill="#C8B6FF"/>
<path d="M462.45 423.73H260.39C255.287 423.727 250.393 421.698 246.785 418.088C243.177 414.478 241.15 409.584 241.15 404.48C241.15 401.953 241.648 399.451 242.615 397.117C243.582 394.783 244.999 392.662 246.786 390.875C248.572 389.089 250.693 387.671 253.027 386.705C255.362 385.738 257.864 385.24 260.39 385.24H462.45C459.77 391.302 458.385 397.857 458.385 404.485C458.385 411.113 459.77 417.668 462.45 423.73Z" fill="#F5F5F5"/>
<path opacity="0.3" d="M241.13 433.29H147.7C145.413 433.29 143.148 432.839 141.035 431.964C138.923 431.088 137.003 429.805 135.386 428.187C133.769 426.569 132.487 424.649 131.613 422.536C130.738 420.422 130.289 418.157 130.29 415.87V393.73C130.29 388.956 132.187 384.378 135.562 381.002C138.938 377.626 143.516 375.73 148.29 375.73H243.29C222.46 388.31 224.02 418.58 241.13 433.29Z" fill="black"/>
<path d="M437.9 406.27C437.9 406.42 396.42 406.54 345.27 406.54C294.12 406.54 252.63 406.42 252.63 406.27C252.63 406.12 294.1 406 345.27 406C396.44 406 437.9 406.12 437.9 406.27Z" fill="#263238"/>
<path d="M456.97 414.82C456.97 414.97 415.49 415.09 364.33 415.09C313.17 415.09 271.69 414.97 271.69 414.82C271.69 414.67 313.16 414.56 364.33 414.56C415.5 414.56 456.97 414.73 456.97 414.82Z" fill="#263238"/>
<path d="M451.39 398.33C451.39 398.48 409.92 398.6 358.76 398.6C307.6 398.6 266.12 398.48 266.12 398.33C266.12 398.18 307.59 398.06 358.76 398.06C409.93 398.06 451.39 398.18 451.39 398.33Z" fill="#263238"/>
<path d="M230.98 429.25C230.98 429.4 211.57 429.52 187.62 429.52C163.67 429.52 144.26 429.4 144.26 429.25C144.26 429.1 163.67 428.99 187.62 428.99C211.57 428.99 230.98 429.11 230.98 429.25Z" fill="#263238"/>
<path d="M230.98 380.46C230.98 380.6 211.57 380.72 187.62 380.72C163.67 380.72 144.26 380.6 144.26 380.46C144.26 380.32 163.67 380.19 187.62 380.19C211.57 380.19 230.98 380.31 230.98 380.46Z" fill="#263238"/>
<path d="M202.57 342.89H297.23V375.89H202.57C199.122 375.89 195.816 374.52 193.378 372.083C190.94 369.645 189.57 366.338 189.57 362.89V355.89C189.57 352.442 190.94 349.136 193.378 346.698C195.816 344.26 199.122 342.89 202.57 342.89Z" fill="#455A64"/>
<path d="M273.91 342.89H462.07C462.884 342.89 463.665 343.214 464.241 343.789C464.817 344.365 465.14 345.146 465.14 345.96V347.6C465.14 348.414 464.817 349.195 464.241 349.771C463.665 350.347 462.884 350.67 462.07 350.67H273.91V342.9V342.89Z" fill="#455A64"/>
<path d="M273.91 368.11H462.07C462.884 368.11 463.665 368.434 464.241 369.009C464.817 369.585 465.14 370.366 465.14 371.18V372.82C465.14 373.634 464.817 374.415 464.241 374.991C463.665 375.567 462.884 375.89 462.07 375.89H273.91V368.12V368.11Z" fill="#455A64"/>
<path d="M459.39 368.11H288.39C286.077 368.11 283.858 367.192 282.221 365.556C280.584 363.921 279.663 361.704 279.66 359.39C279.66 357.075 280.58 354.854 282.217 353.217C283.854 351.58 286.075 350.66 288.39 350.66H459.39C455.017 356.48 455.017 362.297 459.39 368.11Z" fill="#F5F5F5"/>
<path opacity="0.3" d="M279.61 375.88H202.61C200.89 375.88 199.187 375.541 197.599 374.883C196.01 374.224 194.566 373.259 193.351 372.043C192.135 370.826 191.171 369.382 190.514 367.793C189.857 366.203 189.519 364.5 189.52 362.78V356.26C189.519 354.505 189.864 352.766 190.534 351.144C191.205 349.522 192.189 348.048 193.43 346.807C194.671 345.565 196.144 344.58 197.765 343.908C199.387 343.236 201.125 342.89 202.88 342.89H281.39C264.44 350.13 265.71 367.46 279.61 375.88Z" fill="black"/>
<path d="M439.48 358.01C439.48 358.16 405.78 358.28 364.22 358.28C322.66 358.28 288.96 358.16 288.96 358.01C288.96 357.86 322.65 357.75 364.22 357.75C405.79 357.75 439.48 357.87 439.48 358.01Z" fill="#263238"/>
<path d="M454.97 362.73C454.97 362.88 421.27 363 379.71 363C338.15 363 304.45 362.88 304.45 362.73C304.45 362.58 338.14 362.46 379.71 362.46C421.28 362.46 454.97 362.56 454.97 362.73Z" fill="#263238"/>
<path d="M271.39 372.6C271.39 372.75 255.62 372.87 236.16 372.87C216.7 372.87 200.93 372.75 200.93 372.6C200.93 372.45 216.7 372.33 236.16 372.33C255.62 372.33 271.39 372.45 271.39 372.6Z" fill="#263238"/>
<path d="M271.39 346.78C271.39 346.93 255.62 347.04 236.16 347.04C216.7 347.04 200.93 346.93 200.93 346.78C200.93 346.63 216.7 346.51 236.16 346.51C255.62 346.51 271.39 346.63 271.39 346.78Z" fill="#263238"/>
<path d="M462.89 342.89C462.89 343.04 405.02 343.16 333.66 343.16C262.3 343.16 204.39 343.04 204.39 342.89C204.39 342.74 262.24 342.62 333.63 342.62C405.02 342.62 462.89 342.73 462.89 342.89Z" fill="#263238"/>
<path d="M359.12 313.37V331.29L365.33 327.31L372.25 331.29V313.37H359.12Z" fill="#C8B6FF"/>
<path d="M422.23 135.5L390.96 161.55L343.4 255.51L373.05 268.91L419.31 176.76L422.23 135.5Z" fill="#C8B6FF"/>
<g opacity="0.7">
<path d="M419.31 176.73C418.948 176.82 418.569 176.824 418.205 176.743C417.841 176.663 417.5 176.499 417.209 176.264C416.919 176.03 416.687 175.732 416.531 175.393C416.374 175.054 416.299 174.683 416.31 174.31C415.323 175.458 414.002 176.268 412.531 176.627C411.06 176.985 409.514 176.873 408.11 176.307C406.706 175.74 405.515 174.748 404.704 173.47C403.893 172.192 403.504 170.691 403.59 169.18C402.272 169.889 400.789 170.236 399.294 170.183C397.798 170.131 396.343 169.682 395.078 168.882C393.813 168.082 392.784 166.96 392.095 165.631C391.407 164.303 391.084 162.815 391.16 161.32L422.16 135.47L419.31 176.73Z" fill="white"/>
</g>
<path d="M409.65 145.98C409.65 145.98 410.13 153.76 421.03 152.4L422.23 135.5L409.65 145.98Z" fill="#C8B6FF"/>
<path opacity="0.3" d="M403.63 169.21L357.78 261.5L343.4 255.5L390.96 161.5L391.2 161.3C391.129 162.553 391.348 163.806 391.84 164.96C392.496 166.476 393.563 167.778 394.92 168.72C396.585 169.858 398.607 170.352 400.61 170.11C401.663 169.997 402.686 169.692 403.63 169.21Z" fill="black"/>
<path opacity="0.3" d="M416.39 174.34L369.29 267.19L373.09 268.91L419.31 176.73C418.683 176.844 418.036 176.721 417.494 176.384C416.953 176.048 416.556 175.523 416.38 174.91C416.365 174.72 416.368 174.529 416.39 174.34Z" fill="black"/>
<path d="M403.39 160.25C403.292 160.365 403.236 160.509 403.23 160.66C403.231 160.879 403.314 161.089 403.462 161.249C403.61 161.41 403.812 161.51 404.03 161.53C404.739 161.561 405.44 161.365 406.03 160.97C406.403 160.751 406.7 160.423 406.88 160.03C406.979 159.817 407.023 159.583 407.007 159.348C406.992 159.114 406.917 158.888 406.79 158.69C406.625 158.485 406.418 158.318 406.184 158.199C405.949 158.08 405.692 158.012 405.43 158C404.851 157.95 404.269 157.983 403.7 158.1C402.427 158.312 401.211 158.785 400.13 159.49C399.841 159.668 399.593 159.905 399.404 160.186C399.214 160.467 399.087 160.786 399.03 161.12C399.015 161.47 399.086 161.818 399.238 162.134C399.39 162.45 399.617 162.723 399.9 162.93C400.557 163.308 401.283 163.55 402.035 163.643C402.788 163.736 403.551 163.677 404.28 163.47C405.727 163.166 407.062 162.469 408.14 161.457C409.218 160.445 409.996 159.155 410.39 157.73C410.457 157.415 410.451 157.088 410.371 156.776C410.291 156.464 410.14 156.174 409.93 155.93C409.506 155.476 408.977 155.133 408.39 154.93C407.333 154.543 406.224 154.321 405.1 154.27C403.461 154.184 401.822 154.429 400.28 154.99C399.74 155.19 399.28 155.38 399.05 155.51C398.82 155.64 398.63 155.71 398.63 155.71C399.141 155.386 399.684 155.114 400.25 154.9C401.796 154.309 403.446 154.04 405.1 154.11C406.246 154.149 407.38 154.365 408.46 154.75C409.078 154.963 409.634 155.323 410.08 155.8C410.315 156.071 410.485 156.392 410.575 156.739C410.665 157.086 410.674 157.449 410.6 157.8C410.083 159.656 408.941 161.276 407.366 162.386C405.792 163.496 403.882 164.028 401.96 163.89C401.173 163.849 400.413 163.586 399.77 163.13C399.448 162.908 399.188 162.608 399.013 162.258C398.838 161.909 398.755 161.521 398.77 161.13C398.832 160.765 398.971 160.417 399.178 160.11C399.385 159.803 399.655 159.544 399.97 159.35C401.079 158.631 402.325 158.151 403.63 157.94C404.22 157.829 404.822 157.802 405.42 157.86C405.704 157.877 405.981 157.955 406.233 158.087C406.485 158.22 406.705 158.405 406.88 158.63C407.018 158.851 407.099 159.103 407.115 159.364C407.13 159.624 407.081 159.884 406.97 160.12C406.776 160.539 406.459 160.888 406.06 161.12C405.451 161.512 404.732 161.698 404.01 161.65C403.776 161.627 403.559 161.517 403.403 161.34C403.247 161.164 403.164 160.935 403.17 160.7C403.22 160.33 403.39 160.24 403.39 160.25Z" fill="white"/>
<path d="M420.17 159.73C420.17 159.73 419.71 159.66 418.89 159.73C417.722 159.807 416.58 160.112 415.53 160.63C413.985 161.422 412.535 162.389 411.21 163.51C409.596 164.93 407.758 166.072 405.77 166.89C403.72 167.595 401.507 167.678 399.41 167.13C397.702 166.679 396.132 165.814 394.84 164.61C393.964 163.78 393.237 162.806 392.69 161.73C392.482 161.353 392.308 160.958 392.17 160.55C392.227 160.643 392.277 160.74 392.32 160.84C392.41 161.04 392.56 161.33 392.76 161.69C393.346 162.701 394.084 163.615 394.95 164.4C396.233 165.568 397.781 166.405 399.46 166.84C401.521 167.358 403.689 167.268 405.7 166.58C407.662 165.774 409.479 164.652 411.08 163.26C412.419 162.133 413.89 161.173 415.46 160.4C416.528 159.881 417.693 159.592 418.88 159.55C419.316 159.555 419.749 159.615 420.17 159.73Z" fill="white"/>
<path d="M419.99 169.1C419.417 168.519 418.654 168.164 417.84 168.1C415.864 168.082 413.897 168.373 412.01 168.96C410.098 169.475 408.236 170.165 406.45 171.02C405.76 171.35 405.22 171.64 404.84 171.83C404.653 171.949 404.456 172.049 404.25 172.13C404.424 171.994 404.608 171.87 404.8 171.76C405.16 171.54 405.7 171.22 406.38 170.88C408.156 169.972 410.023 169.255 411.95 168.74C413.009 168.45 414.084 168.223 415.17 168.06C416.057 167.898 416.962 167.861 417.86 167.95C418.472 168.015 419.054 168.251 419.54 168.63C419.712 168.764 419.863 168.922 419.99 169.1Z" fill="white"/>
<path d="M407.01 175.73C407.314 175.414 407.649 175.129 408.01 174.88C408.901 174.225 409.925 173.775 411.01 173.56C411.553 173.449 412.114 173.461 412.652 173.594C413.19 173.727 413.691 173.979 414.12 174.33C414.375 174.546 414.588 174.807 414.75 175.1C414.81 175.205 414.851 175.32 414.87 175.44C414.639 175.065 414.352 174.728 414.02 174.44C413.596 174.121 413.11 173.896 412.592 173.781C412.075 173.665 411.539 173.661 411.02 173.77C409.978 173.989 408.989 174.41 408.11 175.01C407.758 175.271 407.39 175.511 407.01 175.73Z" fill="white"/>
<path d="M420.99 154.08C420.945 154.129 420.895 154.173 420.84 154.21C420.74 154.28 420.59 154.39 420.38 154.52C420.136 154.692 419.861 154.815 419.57 154.88C419.177 154.95 418.772 154.926 418.39 154.81C417.54 154.62 416.59 154.19 415.52 153.81C414.36 153.416 413.169 153.118 411.96 152.92C409.745 152.599 407.508 152.448 405.27 152.47H403.27C403.021 152.495 402.769 152.495 402.52 152.47L403.27 152.41L405.27 152.34C407.517 152.269 409.766 152.4 411.99 152.73C413.216 152.924 414.421 153.232 415.59 153.65C416.67 154.03 417.59 154.47 418.43 154.65C418.743 154.763 419.078 154.803 419.409 154.767C419.74 154.73 420.059 154.619 420.34 154.44C420.55 154.309 420.767 154.189 420.99 154.08Z" fill="white"/>
<path d="M454.13 239V320.91C454.15 321.067 454.226 321.212 454.345 321.317C454.464 321.422 454.617 321.48 454.775 321.48C454.934 321.48 455.087 321.422 455.205 321.317C455.324 321.212 455.401 321.067 455.42 320.91V239C455.401 238.843 455.324 238.698 455.205 238.593C455.087 238.489 454.934 238.431 454.775 238.431C454.617 238.431 454.464 238.489 454.345 238.593C454.226 238.698 454.15 238.843 454.13 239Z" fill="#C8B6FF"/>
<path d="M459.39 302.86C459.39 303.774 459.119 304.667 458.612 305.427C458.104 306.186 457.382 306.779 456.538 307.128C455.694 307.478 454.765 307.569 453.869 307.391C452.973 307.213 452.15 306.773 451.503 306.127C450.857 305.481 450.417 304.657 450.239 303.761C450.061 302.865 450.152 301.936 450.502 301.092C450.852 300.248 451.444 299.526 452.204 299.019C452.963 298.511 453.857 298.24 454.77 298.24C455.996 298.24 457.171 298.727 458.037 299.593C458.904 300.46 459.39 301.635 459.39 302.86Z" fill="#C8B6FF"/>
<path d="M453.49 305.25C453.49 305.25 450.12 308.62 449.11 318.49C448.1 328.36 447.88 333.29 447.88 333.29L456.96 333.85V326.79C456.96 327.12 458.76 332.06 458.76 332.06L465.94 329.7C465.94 329.7 463.39 303.46 453.49 305.25Z" fill="#C8B6FF"/>
<path d="M406.26 245.7H252.06V301.29H406.26V245.7Z" fill="#263238"/>
<path d="M460.42 236.14H196.67V245.71H460.42V236.14Z" fill="#263238"/>
<path opacity="0.3" d="M252.06 285.52C252.06 285.52 298.9 268.72 329.16 262.52C359.42 256.32 406.26 258.38 406.26 258.38V245.73H252.06V285.52Z" fill="black"/>
<path opacity="0.3" d="M292.07 236.14H196.67V245.71H292.07V236.14Z" fill="black"/>
<path d="M458.51 245.73C458.51 245.88 399.86 246 327.51 246C255.16 246 196.51 245.88 196.51 245.73C196.51 245.58 255.14 245.47 327.51 245.47C399.88 245.47 458.51 245.56 458.51 245.73Z" fill="#455A64"/>
<path d="M291.92 245.78C291.56 242.55 291.56 239.29 291.92 236.06C292.267 239.291 292.267 242.549 291.92 245.78Z" fill="#455A64"/>
<path d="M313.91 301.3C313.77 301.3 313.65 290.45 313.65 277.07C313.65 263.69 313.77 252.85 313.91 252.85C314.05 252.85 314.18 263.69 314.18 277.07C314.18 290.45 314.06 301.3 313.91 301.3Z" fill="#455A64"/>
<path d="M90.8402 369.57L108.57 362.41L122.11 327.04L140.16 336.34C140.16 336.34 138.42 339.83 134.69 348.48C133.24 351.81 128.47 361.12 126.53 365.65C124.735 369.838 121.778 373.425 118.008 375.986C114.239 378.546 109.815 379.974 105.26 380.1L88.6202 380.53L90.8402 369.57Z" fill="#FFBF9D"/>
<path d="M82.0302 362.73L79.3902 359.91C78.8772 359.574 78.2734 359.403 77.6602 359.42L69.1802 359.68C68.3886 359.757 67.6242 360.01 66.9439 360.422C66.2636 360.834 65.6847 361.394 65.2502 362.06L62.1602 367.31C62.1602 367.31 60.0902 370.9 60.3502 371.78C60.466 372.145 60.713 372.455 61.0436 372.649C61.3742 372.843 61.7648 372.907 62.1402 372.83C62.1402 372.83 62.4402 374.49 62.9902 374.83C63.3086 374.99 63.6562 375.085 64.0119 375.107C64.3677 375.129 64.7243 375.079 65.0602 374.96C65.2061 375.275 65.4434 375.539 65.7413 375.717C66.0391 375.896 66.3837 375.98 66.7302 375.96C66.8789 375.946 67.0262 375.92 67.1702 375.88C68.1702 375.57 68.6302 373.62 68.6302 373.62L72.9302 372.83C72.9302 372.83 79.1102 376.96 81.2902 379.66C83.4702 382.36 89.1702 380.3 89.1702 380.3L91.3002 370.1L82.0302 362.73Z" fill="#FFBF9D"/>
<path d="M75.7802 363.94C75.177 364.127 74.5513 364.231 73.9202 364.25C72.7502 364.38 71.1002 364.43 69.2302 364.67L69.4302 364.52C69.1088 365.211 68.7413 365.879 68.3302 366.52C67.2009 368.312 65.8277 369.937 64.2502 371.35C63.6305 371.973 62.9104 372.487 62.1202 372.87C62.1202 372.8 62.8702 372.2 63.9902 371.07C65.4609 369.608 66.7655 367.989 67.8802 366.24C68.2902 365.57 68.6602 364.91 68.9702 364.24L69.0302 364.11H69.1702C71.0802 363.9 72.7302 363.92 73.9002 363.88C74.5273 363.835 75.1573 363.855 75.7802 363.94Z" fill="#FF9A6C"/>
<path d="M75.9702 367.99C75.4698 368.234 74.926 368.377 74.3702 368.41C72.989 368.601 71.5854 368.554 70.2202 368.27L70.5302 368.1C70.3503 368.624 70.1434 369.138 69.9102 369.64C69.137 371.236 68.0524 372.66 66.7202 373.83C66.2002 374.346 65.581 374.751 64.9002 375.02C65.3937 374.503 65.9145 374.012 66.4602 373.55C67.693 372.351 68.7081 370.947 69.4602 369.4C69.6915 368.922 69.8951 368.431 70.0702 367.93L70.1502 367.71H70.3702C72.2157 368.055 74.0995 368.15 75.9702 367.99Z" fill="#FF9A6C"/>
<path d="M86.7502 370.08L79.1802 366.56C78.1644 365.995 77.0391 365.654 75.8802 365.56C74.6408 365.669 73.4447 366.07 72.3902 366.73L68.3102 368.83C68.0902 368.95 67.8502 369.09 67.7802 369.32C67.7102 369.55 67.9002 369.95 68.1302 370.18C69.1834 371.176 70.5617 371.758 72.0103 371.817C73.4589 371.875 74.8798 371.408 76.0102 370.5C76.5626 372.302 77.4256 373.995 78.5602 375.5C79.1404 376.255 79.9053 376.847 80.7811 377.22C81.6569 377.593 82.614 377.735 83.5602 377.63" fill="#FFBF9D"/>
<path d="M83.5402 377.73C83.4774 377.761 83.4098 377.781 83.3402 377.79C83.1373 377.84 82.9293 377.867 82.7202 377.87C81.9258 377.873 81.1429 377.681 80.4402 377.31C79.3519 376.741 78.4288 375.9 77.7602 374.87C76.9303 373.547 76.2591 372.13 75.7602 370.65L76.1402 370.74C75.5329 371.25 74.8304 371.635 74.0734 371.872C73.3164 372.108 72.52 372.193 71.7302 372.12C70.8716 372.061 70.0342 371.826 69.2702 371.43C68.8791 371.223 68.5133 370.971 68.1802 370.68C67.9998 370.531 67.8355 370.363 67.6902 370.18C67.596 370.066 67.5282 369.932 67.4919 369.789C67.4556 369.645 67.4516 369.495 67.4802 369.35C67.5128 369.231 67.5695 369.12 67.6469 369.023C67.7244 368.927 67.8208 368.847 67.9302 368.79C68.1102 368.68 68.2602 368.61 68.4202 368.52L69.3602 368.04L71.2102 367.04C72.3594 366.367 73.5847 365.833 74.8602 365.45C76.0848 365.229 77.3479 365.423 78.4502 366C79.4502 366.46 80.4502 366.92 81.2502 367.33L85.2502 369.33C85.7528 369.556 86.2375 369.821 86.7002 370.12C86.1711 369.963 85.656 369.763 85.1602 369.52L81.0602 367.71L78.2402 366.45C77.2237 365.929 76.0618 365.763 74.9402 365.98C73.7099 366.365 72.5285 366.892 71.4202 367.55L69.5802 368.55L68.6402 369.04C68.3202 369.2 67.9802 369.36 67.9602 369.52C67.9402 369.68 68.1902 370.07 68.5002 370.32C68.8055 370.585 69.1412 370.814 69.5002 371C70.1996 371.362 70.9648 371.58 71.7502 371.64C73.2113 371.782 74.6696 371.344 75.8102 370.42L76.0702 370.2L76.1802 370.52C76.6464 371.975 77.2736 373.374 78.0502 374.69C78.6623 375.688 79.515 376.517 80.5302 377.1C81.4529 377.593 82.4973 377.812 83.5402 377.73Z" fill="#FF9A6C"/>
<path d="M185.19 271C185.26 265.32 186.19 259.66 185.93 254C185.67 248.34 184.22 242.41 180.26 238.34C176.3 234.27 169.39 232.73 164.79 235.98L163.79 240.82C165.61 262.72 165.37 284.97 167.19 306.87C167.43 309.75 169.76 312.36 171.07 314.93C172.38 317.5 175.01 319.63 177.89 319.45C181.66 319.22 184.13 315.4 185.3 311.8C189.6 298.79 185.02 284.73 185.19 271Z" fill="#263238"/>
<path d="M171.53 241.55C170.772 240.107 169.797 238.789 168.64 237.64C168.057 237.069 167.351 236.637 166.577 236.378C165.803 236.118 164.98 236.037 164.17 236.14C163.789 236.188 163.426 236.332 163.116 236.559C162.806 236.787 162.56 237.09 162.4 237.44C162.15 238.16 162.69 239.13 163.45 239.06L163.61 239.2C165.31 240.707 167.04 242.177 168.8 243.61C169.22 244.002 169.713 244.308 170.25 244.51C170.52 244.609 170.813 244.629 171.094 244.569C171.375 244.509 171.634 244.37 171.84 244.17C172.47 243.47 172.01 242.36 171.53 241.55Z" fill="#C8B6FF"/>
<path d="M174.74 247.13C169.08 240.21 161.48 236.22 152.54 236.13C147.54 236.04 145.41 237.13 141.78 238.07C138.145 238.948 134.933 241.071 132.7 244.07C130.13 247.72 127.97 251.81 127.48 256.26C126.839 260.807 126.622 265.403 126.83 269.99C127.04 274.6 128.521 279.061 131.11 282.88L142.75 284.88C149.18 285.1 155.7 285.31 161.97 283.88C168.24 282.45 174.32 279.04 177.67 273.55C182.33 265.87 180.39 254.04 174.74 247.13Z" fill="#263238"/>
<path d="M164.39 247.05L148.87 240.88L144.81 241.35C135.69 241.35 129.39 251.45 129.33 258.83C129.27 267.05 129.51 277.07 130.81 283.12C133.44 295.29 143.81 296.3 143.81 296.3C143.81 296.3 143.6 302.79 143.52 306.87L167.29 305.16L168.48 251.22C168.444 250.139 168.004 249.111 167.247 248.339C166.489 247.567 165.47 247.107 164.39 247.05Z" fill="#FFBF9D"/>
<path d="M149.06 280.27C148.964 279.648 148.644 279.082 148.16 278.68C147.72 278.301 147.167 278.077 146.587 278.042C146.007 278.008 145.432 278.165 144.95 278.49C144.45 278.875 144.061 279.387 143.824 279.972C143.587 280.557 143.51 281.195 143.6 281.82C143.867 282.195 144.212 282.509 144.61 282.74C145.009 282.971 145.452 283.114 145.91 283.16C146.053 283.17 146.197 283.17 146.34 283.16C147.082 283.175 147.8 282.899 148.34 282.39C148.612 282.113 148.818 281.779 148.942 281.412C149.067 281.045 149.107 280.655 149.06 280.27Z" fill="#FF9A6C"/>
<path d="M133.44 269.22C133.456 269.631 133.632 270.02 133.932 270.302C134.231 270.585 134.629 270.738 135.04 270.73C135.241 270.734 135.442 270.698 135.629 270.624C135.816 270.55 135.987 270.44 136.131 270.299C136.275 270.159 136.39 269.991 136.469 269.806C136.548 269.62 136.589 269.421 136.59 269.22C136.57 268.809 136.39 268.422 136.09 268.14C135.79 267.858 135.392 267.704 134.98 267.71C134.779 267.706 134.58 267.742 134.393 267.816C134.206 267.89 134.036 268.001 133.893 268.142C133.75 268.282 133.636 268.45 133.558 268.635C133.48 268.82 133.44 269.019 133.44 269.22Z" fill="#263238"/>
<path d="M132.11 262.94C132.31 263.13 133.46 262.19 135.11 262.1C136.76 262.01 138.11 262.79 138.27 262.57C138.43 262.35 138.13 262.11 137.57 261.75C136.809 261.283 135.922 261.062 135.03 261.12C134.15 261.164 133.306 261.486 132.62 262.04C132.16 262.47 132 262.85 132.11 262.94Z" fill="#263238"/>
<path d="M142.99 276.23C142.083 275.992 141.148 275.874 140.21 275.88C139.78 275.88 139.36 275.8 139.27 275.5C139.216 275.058 139.292 274.609 139.49 274.21C139.84 273.14 140.21 272.02 140.59 270.84C142.11 266.06 143.19 262.13 142.99 262.07C142.79 262.01 141.41 265.84 139.89 270.63L138.89 274.01C138.644 274.546 138.598 275.153 138.76 275.72C138.829 275.869 138.932 276 139.061 276.102C139.189 276.205 139.34 276.276 139.5 276.31C139.743 276.362 139.992 276.382 140.24 276.37C141.159 276.432 142.082 276.385 142.99 276.23Z" fill="#263238"/>
<path d="M143.79 296.29C149.576 296.061 155.184 294.23 159.99 291C159.99 291 156.08 299.75 143.73 299.28L143.79 296.29Z" fill="#FF9A6C"/>
<path d="M148.04 277.12C147.77 277.12 147.86 278.96 146.36 280.35C144.86 281.74 142.89 281.65 142.89 281.91C142.89 282.17 143.35 282.24 144.17 282.22C145.252 282.177 146.283 281.752 147.08 281.02C147.843 280.321 148.306 279.353 148.37 278.32C148.39 277.55 148.17 277.11 148.04 277.12Z" fill="#263238"/>
<path d="M132.68 257.01C132.99 257.4 134.27 257.06 135.79 257.1C137.31 257.14 138.59 257.47 138.91 257.1C139.05 256.91 138.86 256.52 138.31 256.1C137.567 255.617 136.697 255.363 135.81 255.37C134.923 255.346 134.048 255.579 133.29 256.04C132.74 256.42 132.55 256.81 132.68 257.01Z" fill="#263238"/>
<path d="M151.93 268.8C151.939 269.211 151.787 269.609 151.507 269.909C151.227 270.21 150.84 270.389 150.43 270.41C150.23 270.429 150.028 270.408 149.837 270.349C149.645 270.289 149.467 270.191 149.313 270.062C149.159 269.932 149.033 269.774 148.942 269.595C148.85 269.416 148.795 269.221 148.78 269.02C148.772 268.61 148.922 268.213 149.2 267.911C149.477 267.609 149.861 267.426 150.27 267.4C150.472 267.381 150.675 267.402 150.868 267.462C151.061 267.523 151.24 267.621 151.394 267.751C151.549 267.882 151.676 268.042 151.768 268.222C151.86 268.402 151.915 268.598 151.93 268.8Z" fill="#263238"/>
<path d="M155.03 262.28C154.84 262.49 153.63 261.63 151.93 261.66C150.23 261.69 149.01 262.57 148.82 262.36C148.63 262.15 148.92 261.9 149.46 261.49C150.183 260.969 151.049 260.686 151.94 260.68C152.822 260.661 153.688 260.923 154.41 261.43C154.94 261.82 155.13 262.19 155.03 262.28Z" fill="#263238"/>
<path d="M154.01 256.86C153.69 257.25 152.37 256.86 150.8 256.86C149.23 256.86 147.89 257.17 147.58 256.77C147.44 256.58 147.65 256.19 148.22 255.77C149.011 255.307 149.915 255.075 150.83 255.1C151.739 255.09 152.632 255.343 153.4 255.83C153.97 256.27 154.16 256.67 154.01 256.86Z" fill="#263238"/>
<path d="M166.39 271.84C166.39 270.93 167.28 268.72 168.18 268.53C170.57 268.02 174.92 267.97 175.3 274.09C175.82 282.46 167.3 281.25 167.3 281.01C167.3 280.77 166.54 275 166.39 271.84Z" fill="#FFBF9D"/>
<path d="M169.39 277.81C169.39 277.81 169.54 277.91 169.79 278C170.143 278.144 170.538 278.144 170.89 278C171.75 277.62 172.41 276.17 172.36 274.66C172.336 273.942 172.151 273.238 171.82 272.6C171.726 272.343 171.571 272.112 171.366 271.929C171.162 271.746 170.916 271.616 170.65 271.55C170.481 271.517 170.306 271.543 170.154 271.626C170.003 271.708 169.884 271.84 169.82 272C169.72 272.24 169.82 272.41 169.74 272.42C169.66 272.43 169.55 272.29 169.6 271.94C169.633 271.73 169.74 271.539 169.9 271.4C170.007 271.305 170.133 271.233 170.268 271.189C170.404 271.144 170.548 271.127 170.69 271.14C171.039 271.182 171.37 271.315 171.651 271.526C171.932 271.736 172.152 272.017 172.29 272.34C172.69 273.043 172.913 273.832 172.94 274.64C172.99 276.33 172.22 277.96 171.04 278.38C170.82 278.46 170.584 278.49 170.351 278.467C170.117 278.445 169.891 278.371 169.69 278.25C169.39 278.02 169.39 277.83 169.39 277.81Z" fill="#FF9A6C"/>
<path d="M168.5 268.55L166.39 270.73C157.21 261.94 139.27 239.94 140.28 241.25C144.465 239.695 148.973 239.217 153.39 239.86C160.22 241.02 173.16 244.44 172.96 252.49C172.76 260.54 168.5 268.55 168.5 268.55Z" fill="#263238"/>
<path d="M180.66 266.73C180.633 266.566 180.59 266.405 180.53 266.25C180.378 265.795 180.187 265.353 179.96 264.93C179.094 263.381 177.899 262.04 176.46 261C174.339 259.476 171.971 258.33 169.46 257.61C166.66 256.7 163.51 255.99 160.41 254.61C157.487 253.392 154.715 251.838 152.15 249.98C150.053 248.461 148.098 246.754 146.31 244.88C145.111 243.613 143.986 242.277 142.94 240.88L142.1 239.72C142.007 239.58 141.899 239.449 141.78 239.33C141.85 239.484 141.934 239.631 142.03 239.77C142.2 240.05 142.45 240.46 142.8 240.97C143.801 242.417 144.901 243.794 146.09 245.09C150.037 249.382 154.868 252.766 160.25 255.01C163.229 256.139 166.263 257.117 169.34 257.94C171.84 258.621 174.207 259.72 176.34 261.19C177.764 262.19 178.966 263.474 179.87 264.96C180.39 266.05 180.61 266.73 180.66 266.73Z" fill="#455A64"/>
<path d="M178.22 268.02C178.248 267.394 178.138 266.77 177.9 266.19C177.269 264.591 176.171 263.218 174.75 262.25C172.623 260.88 170.243 259.952 167.75 259.52C164.767 258.922 161.86 257.997 159.08 256.76C156.312 255.497 153.712 253.895 151.34 251.99C149.41 250.428 147.636 248.683 146.04 246.78C144.954 245.49 143.951 244.13 143.04 242.71L142.33 241.54C142.257 241.399 142.166 241.268 142.06 241.15C142.116 241.298 142.183 241.442 142.26 241.58L142.9 242.8C143.751 244.258 144.707 245.651 145.76 246.97C147.336 248.923 149.109 250.709 151.05 252.3C153.436 254.243 156.061 255.873 158.86 257.15C161.664 258.401 164.604 259.324 167.62 259.9C170.068 260.308 172.412 261.191 174.52 262.5C175.914 263.418 177.012 264.721 177.68 266.25C177.914 266.822 178.095 267.415 178.22 268.02Z" fill="#455A64"/>
<path d="M168.22 282.73C168.22 282.67 168.93 282.58 170.17 282.25C171.909 281.748 173.51 280.855 174.85 279.64C176.814 277.802 178.306 275.517 179.2 272.98C180.342 269.888 180.958 266.626 181.02 263.33C181.058 261.627 180.921 259.925 180.61 258.25C179.771 254.038 177.793 250.136 174.89 246.97C173.184 245.158 171.301 243.52 169.27 242.08C169.27 242.08 169.44 242.14 169.74 242.32C170.04 242.5 170.47 242.74 171 243.12C172.519 244.162 173.921 245.366 175.18 246.71C177.066 248.702 178.592 251.006 179.69 253.52C180.327 255.011 180.812 256.562 181.14 258.15C181.462 259.861 181.606 261.6 181.57 263.34C181.51 266.698 180.871 270.02 179.68 273.16C178.734 275.757 177.164 278.081 175.11 279.93C173.708 281.15 172.035 282.017 170.23 282.46C169.739 282.572 169.241 282.652 168.74 282.7C168.568 282.724 168.394 282.734 168.22 282.73Z" fill="#455A64"/>
<path d="M178.87 385.64L129.39 392.83C110.8 398.09 91.2202 399.63 70.7502 397.83L145.22 432.57L175.12 433.03C175.12 433.03 184.22 433.03 185.81 425.09C187.4 417.15 189.17 392.97 189.17 392.97C189.17 392.97 183.26 387.85 178.87 385.64Z" fill="#263238"/>
<g opacity="0.3">
<path d="M178.72 406.47C179.538 411.425 179.833 416.453 179.6 421.47C181.12 419.802 182.24 417.809 182.874 415.643C183.508 413.477 183.64 411.195 183.26 408.97C182.83 406.53 181.81 403.84 183.09 401.71C183.95 400.28 186.22 398.64 185.89 397.01C185.89 397.01 183.89 397.01 182.1 396.94C180.65 396.88 177.64 396.79 177.64 396.79C178.935 399.901 179.215 403.341 178.44 406.62" fill="black"/>
</g>
<path d="M143.6 304.83L167.64 302.23L172.04 306.23L154.88 316.33L147.31 320.25L139.83 317.98L137.46 313.52L143.6 304.83Z" fill="#FFBF9D"/>
<path d="M111.19 334.1C111.19 334.1 118.73 319.64 120.59 316.48C123.77 311.09 129.71 308.04 129.71 308.04L143.6 304.83C143.6 304.83 142.16 311.83 150.8 312.27C161.8 312.88 168.63 302.34 168.63 302.34C168.63 302.34 181.17 303.63 184.63 305.08C188.09 306.53 197.89 310.64 199.33 323.66L202.69 344.93L176.19 346.93L176.55 375.25L165.29 384.46C165.29 384.46 132.96 395.59 130.89 396.32C129.89 396.67 130.15 382.93 127.84 371.15L123.48 360.56C121.715 356.33 120.671 351.835 120.39 347.26C120.22 344.26 120.3 341.96 120.3 341.96C120.3 341.96 113.5 339.63 111.19 334.1Z" fill="#455A64"/>
<path d="M132.07 385.22L176.5 371.89L176.19 346.95L198.81 345.23C198.81 345.23 197.01 358.15 196.74 364.77C196.36 374.3 191.74 387.62 188.74 390.44C185.74 393.26 130.92 396.34 130.92 396.34L132.07 385.22Z" fill="#FFBF9D"/>
<path d="M106.87 393.06C107.085 393.427 107.425 393.703 107.828 393.837C108.231 393.972 108.669 393.955 109.06 393.79C110.06 393.39 109.79 391.37 109.79 391.37L114.52 390.21C114.52 390.21 121.05 393.75 123.52 396.21C125.99 398.67 131.42 396.1 131.42 396.1L132.55 385.73L123.12 378.44C123.12 378.44 123.7 378.88 122.97 377.44C122.24 376 119.52 376.78 119.52 376.78C119.04 376.07 117.21 375.95 117.21 375.95L109.54 377.44C108.762 377.592 108.027 377.915 107.391 378.388C106.754 378.86 106.231 379.469 105.86 380.17L102.99 385.6C102.99 385.6 101.55 389.46 101.9 390.31C102.051 390.662 102.326 390.946 102.673 391.108C103.019 391.271 103.413 391.3 103.78 391.19C103.78 391.19 104.35 393.61 105 393.64C105.657 393.559 106.292 393.352 106.87 393.03V393.06Z" fill="#FFBF9D"/>
<path d="M122.76 384.46C122.76 384.54 121.76 384.52 120.08 384.72C117.941 384.993 115.848 385.555 113.86 386.39C112.769 386.857 111.715 387.408 110.71 388.04C109.82 388.63 108.88 389.14 108.63 389.85C108.576 390.003 108.563 390.167 108.591 390.326C108.619 390.486 108.687 390.635 108.79 390.76C108.948 390.968 109.164 391.124 109.41 391.21C109.83 391.34 110.08 391.21 110.1 391.21C110.12 391.21 109.87 391.44 109.36 391.35C109.058 391.283 108.785 391.122 108.58 390.89C108.433 390.732 108.33 390.538 108.281 390.327C108.231 390.117 108.238 389.897 108.3 389.69C108.471 389.224 108.777 388.82 109.18 388.53C109.58 388.22 110 387.91 110.47 387.6C113.335 385.724 116.626 384.599 120.04 384.33C120.948 384.226 121.867 384.27 122.76 384.46Z" fill="#FF9A6C"/>
<path d="M123.69 389.35C123.69 389.49 120.53 389.61 116.69 390.13C112.85 390.65 109.77 391.37 109.69 391.23C110.325 390.925 110.997 390.706 111.69 390.58C113.311 390.173 114.954 389.859 116.61 389.64C118.268 389.415 119.937 389.285 121.61 389.25C122.305 389.188 123.005 389.222 123.69 389.35Z" fill="#FF9A6C"/>
<path d="M106.9 392.86C106.819 392.596 106.765 392.325 106.74 392.05C106.637 391.297 106.577 390.539 106.56 389.78C106.551 389.252 106.585 388.723 106.66 388.2C106.753 387.584 106.967 386.993 107.29 386.46C107.955 385.227 108.86 384.139 109.95 383.26C111.029 382.378 112.228 381.654 113.51 381.11C114.573 380.715 115.682 380.457 116.81 380.34C117.81 380.23 118.53 380.2 119.07 380.17C119.345 380.13 119.625 380.13 119.9 380.17C118.911 380.396 117.909 380.563 116.9 380.67C115.812 380.83 114.745 381.111 113.72 381.51C112.49 382.059 111.339 382.772 110.3 383.63C109.264 384.464 108.389 385.48 107.72 386.63C107.186 387.578 106.92 388.653 106.95 389.74C106.87 391.67 107.01 392.86 106.9 392.86Z" fill="#FF9A6C"/>
<path d="M116.99 377.97C116.99 378.05 115.84 378.17 113.99 378.52C112.14 378.87 109.39 379.28 107.99 381.86C106.561 383.817 105.407 385.96 104.56 388.23C104.296 389.195 104.125 390.183 104.05 391.18C103.957 390.917 103.919 390.638 103.94 390.36C103.922 389.607 104.016 388.855 104.22 388.13C104.981 385.78 106.116 383.569 107.58 381.58C107.969 380.978 108.437 380.429 108.97 379.95C109.485 379.509 110.079 379.169 110.72 378.95C111.772 378.585 112.857 378.327 113.96 378.18C114.957 377.984 115.975 377.913 116.99 377.97Z" fill="#FF9A6C"/>
<path d="M121.66 394.73C121.487 394.639 121.323 394.532 121.17 394.41L119.8 393.48C118.074 392.343 116.284 391.305 114.44 390.37H114.55L109.83 391.56L109.98 391.34C110.025 391.732 110.025 392.128 109.98 392.52C109.951 392.952 109.794 393.366 109.53 393.71C109.366 393.883 109.153 394.002 108.92 394.05C108.705 394.125 108.477 394.156 108.25 394.14C107.781 394.106 107.338 393.908 107 393.58C106.918 393.495 106.841 393.405 106.77 393.31V393.24L107.05 393.32L106.9 393.39C106.706 393.492 106.505 393.582 106.3 393.66C106.091 393.742 105.877 393.812 105.66 393.87C105.546 393.904 105.429 393.927 105.31 393.94C105.158 393.965 105.003 393.948 104.86 393.89C104.632 393.745 104.451 393.537 104.34 393.29C104.229 393.083 104.132 392.87 104.05 392.65C103.882 392.217 103.745 391.773 103.64 391.32L103.93 391.49C103.611 391.588 103.272 391.596 102.949 391.513C102.626 391.43 102.332 391.259 102.1 391.02C101.859 390.765 101.717 390.431 101.7 390.08C101.699 389.765 101.73 389.45 101.79 389.14C102.058 387.936 102.412 386.753 102.85 385.6L104.38 382.7L105.38 380.87C105.677 380.237 106.039 379.637 106.46 379.08C106.919 378.544 107.48 378.106 108.11 377.79C108.725 377.508 109.379 377.319 110.05 377.23L117.27 375.84H117.33C117.774 375.874 118.213 375.954 118.64 376.08C119.093 376.18 119.503 376.422 119.81 376.77L119.53 376.71C119.911 376.499 120.338 376.384 120.773 376.373C121.208 376.363 121.64 376.458 122.03 376.65C122.706 377.077 123.198 377.74 123.41 378.51L123.34 378.42L129.84 383.42L131.59 384.8C131.801 384.953 131.998 385.124 132.18 385.31C131.95 385.191 131.733 385.051 131.53 384.89L129.72 383.58L123.12 378.72H123.07V378.65C122.884 377.98 122.452 377.405 121.86 377.04C121.53 376.882 121.167 376.805 120.802 376.818C120.436 376.83 120.079 376.93 119.76 377.11L119.59 377.19L119.48 377.05C119.226 376.787 118.899 376.605 118.54 376.53C118.142 376.42 117.733 376.349 117.32 376.32H117.38L110.16 377.74C109.53 377.822 108.916 378.001 108.34 378.27C107.773 378.551 107.269 378.946 106.86 379.43C106.466 379.963 106.131 380.536 105.86 381.14L104.86 382.97C104.33 383.97 103.86 384.97 103.33 385.87C102.918 386.999 102.584 388.155 102.33 389.33C102.273 389.603 102.243 389.881 102.24 390.16C102.254 390.4 102.353 390.627 102.52 390.8C102.692 390.972 102.908 391.095 103.143 391.155C103.379 391.214 103.627 391.209 103.86 391.14L104.1 391.08V391.31C104.21 391.74 104.34 392.18 104.49 392.59C104.6 392.965 104.799 393.309 105.07 393.59C105.135 393.61 105.205 393.61 105.27 393.59L105.56 393.53C105.762 393.485 105.96 393.421 106.15 393.34C106.34 393.27 106.53 393.18 106.72 393.09L106.86 393.03L107.15 393.11V393.16C107.205 393.238 107.265 393.311 107.33 393.38C107.517 393.579 107.756 393.72 108.02 393.787C108.284 393.855 108.561 393.845 108.82 393.76C108.98 393.733 109.127 393.656 109.24 393.54C109.593 392.937 109.724 392.23 109.61 391.54V391.36H109.77L114.51 390.24H114.57C116.413 391.2 118.187 392.285 119.88 393.49C120.47 393.92 120.88 394.26 121.21 394.49C121.366 394.559 121.516 394.639 121.66 394.73Z" fill="#FF9A6C"/>
<path d="M98.5602 401.15C98.5602 401.15 67.2102 391.3 57.3702 388.15C40.3702 382.65 29.3102 388.21 25.8102 394.27C21.2702 402.14 32.1602 417.49 36.3602 421.02C48.7902 431.47 70.1002 432.88 70.1002 432.88L146.72 432.74L124.39 402.36L98.5602 401.15Z" fill="#263238"/>
<path d="M103.26 415.37C90.4924 416.856 77.5561 415.095 65.6502 410.25C63.619 409.332 61.5274 408.554 59.3902 407.92C57.2774 407.387 55.0871 407.232 52.9202 407.46C52.0602 407.482 51.2134 407.677 50.43 408.032C49.6467 408.388 48.9428 408.897 48.3602 409.53C46.8302 411.53 47.6102 414.41 48.4602 416.79C49.4602 419.59 50.4602 422.45 52.4602 424.69C54.7302 427.3 58.0302 428.8 61.3402 429.84C67.8102 431.84 74.6402 432.47 81.4202 432.73L104.7 431.46L103.26 415.37Z" fill="#E0E0E0"/>
<path d="M58.3002 407.93C58.4532 408.118 58.5717 408.331 58.6502 408.56C58.9206 409.157 59.1284 409.78 59.2702 410.42C59.7728 412.548 59.6845 414.773 59.0148 416.854C58.3451 418.936 57.1194 420.795 55.4702 422.23C54.9792 422.66 54.4504 423.045 53.8902 423.38C53.4802 423.61 53.2502 423.71 53.2302 423.68C53.2102 423.65 54.0702 423.1 55.2302 421.97C56.7521 420.515 57.8867 418.703 58.5311 416.698C59.1755 414.693 59.3092 412.56 58.9202 410.49C58.6402 408.89 58.2202 407.96 58.3002 407.93Z" fill="#263238"/>
<path d="M178.58 399.23C176.76 394.07 176.46 386.49 165.23 382.85C154 379.21 145.52 386.19 139.75 388.61C133.98 391.03 102.45 408.33 102.45 408.33C102.45 408.33 96.5102 418.92 98.2002 423.6C99.8902 428.28 107.57 432.9 107.57 432.9H142.84C151.94 432.9 168.84 432.59 168.84 432.59C171.103 428.881 173.13 425.034 174.91 421.07L175.21 419.55C175.24 418.34 180.39 404.39 178.58 399.23Z" fill="#263238"/>
<path d="M159.04 426.02C158.994 426.199 158.905 426.364 158.78 426.5C158.438 426.897 158.049 427.249 157.62 427.55C156.045 428.636 154.371 429.57 152.62 430.34C151.424 430.898 150.195 431.382 148.94 431.79C147.487 432.247 145.999 432.582 144.49 432.79C141.048 433.133 137.588 433.266 134.13 433.19C126.8 433.31 120.13 433.59 115.33 433.53C112.92 433.53 110.97 433.42 109.63 433.28C109.113 433.235 108.599 433.161 108.09 433.06C107.91 433.038 107.732 432.998 107.56 432.94C107.56 432.89 108.3 433.02 109.64 433.09C110.98 433.16 112.93 433.21 115.33 433.19C120.14 433.19 126.78 432.82 134.13 432.7C137.571 432.775 141.013 432.654 144.44 432.34C145.922 432.158 147.387 431.857 148.82 431.44C150.067 431.055 151.289 430.594 152.48 430.06C154.219 429.329 155.892 428.449 157.48 427.43C157.912 427.141 158.311 426.806 158.67 426.43C158.95 426.19 159.01 426.01 159.04 426.02Z" fill="#263238"/>
<path d="M107.57 432.9L107.1 432.65C106.8 432.48 106.36 432.2 105.79 431.83C104.132 430.748 102.578 429.512 101.15 428.14C100.116 427.148 99.2329 426.009 98.5302 424.76C97.812 423.196 97.6293 421.439 98.0102 419.76C98.8677 415.74 100.306 411.866 102.28 408.26V408.21C108.06 405.03 114.69 401.42 121.93 397.53C125.55 395.59 129.32 393.58 133.24 391.53C135.24 390.53 137.24 389.53 139.24 388.53C141.24 387.53 143.29 386.53 145.36 385.45C148.22 383.883 151.287 382.729 154.47 382.02C156.034 381.708 157.626 381.564 159.22 381.59C160.78 381.637 162.33 381.859 163.84 382.25C166.769 382.971 169.519 384.285 171.92 386.11C173.037 387.035 174.025 388.105 174.86 389.29C175.628 390.459 176.262 391.71 176.75 393.02C177.25 394.3 177.6 395.59 177.96 396.85C178.373 398.074 178.707 399.323 178.96 400.59C179.117 403.01 178.915 405.44 178.36 407.8C177.91 410.05 177.36 412.15 176.79 414.1C176.51 415.1 176.23 416.03 175.97 416.94C175.71 417.85 175.41 418.75 175.27 419.55C175.15 420.12 175.06 420.55 174.96 421.06C173.997 424.15 172.636 427.102 170.91 429.84C170.299 430.819 169.578 431.725 168.76 432.54L168.89 432.36C169 432.23 169.14 432.07 169.31 431.85C169.84 431.184 170.334 430.489 170.79 429.77C172.456 427.015 173.77 424.062 174.7 420.98C175.27 420.5 175.16 420.03 174.99 419.46C175.165 418.548 175.392 417.646 175.67 416.76L176.48 413.93C177.02 411.93 177.56 409.87 178 407.64C178.533 405.317 178.722 402.928 178.56 400.55C178.297 399.309 177.963 398.083 177.56 396.88C177.19 395.62 176.83 394.34 176.34 393.09C175.863 391.811 175.242 390.59 174.49 389.45C173.679 388.303 172.717 387.271 171.63 386.38C168.034 383.685 163.701 382.15 159.21 381.98C157.653 381.955 156.097 382.099 154.57 382.41C151.425 383.108 148.394 384.249 145.57 385.8C143.57 386.8 141.57 388 139.42 388.89C137.27 389.78 135.42 390.84 133.42 391.89C129.51 393.89 125.73 395.89 122.11 397.89L102.43 408.5L102.5 408.42C100.532 411.985 99.0871 415.814 98.2102 419.79C97.8157 421.412 97.9741 423.119 98.6602 424.64C99.3334 425.878 100.19 427.008 101.2 427.99C102.603 429.373 104.125 430.628 105.75 431.74L107.03 432.6C107.39 432.79 107.57 432.9 107.57 432.9Z" fill="#263238"/>
<path d="M164.97 419.81C164.97 419.81 175.48 421.07 174.55 426.21C173.62 431.35 170.18 433.08 170.18 433.08L141.62 433.14C141.62 433.14 158.67 431.96 164.97 419.81Z" fill="#E0E0E0"/>
<path d="M165.99 417.32C165.988 417.821 165.879 418.315 165.67 418.77C165.283 419.92 164.709 420.998 163.97 421.96C162.974 423.363 161.581 424.436 159.97 425.04C161.296 424.045 162.513 422.912 163.6 421.66C164.517 420.283 165.317 418.831 165.99 417.32Z" fill="#263238"/>
<path d="M162.39 419.33C162.407 420.62 162.061 421.888 161.39 422.99C160.877 424.158 160.092 425.187 159.1 425.99C158.99 425.9 160.02 424.57 160.95 422.74C161.88 420.91 162.21 419.31 162.39 419.33Z" fill="#263238"/>
<path d="M175.75 431.65C175.67 431.65 176.35 430.31 177.17 428.1C179.323 422.329 180.034 416.119 179.24 410.01C178.93 407.68 178.57 406.25 178.65 406.23C178.808 406.547 178.923 406.883 178.99 407.23C179.237 408.135 179.434 409.053 179.58 409.98C180.581 416.142 179.861 422.461 177.5 428.24C177.144 429.092 176.74 429.923 176.29 430.73C176.147 431.057 175.966 431.366 175.75 431.65Z" fill="#455A64"/>
<g opacity="0.3">
<path d="M169.81 417.04C169.73 416.35 169.46 415.53 168.81 415.39C167.97 415.22 167.4 416.18 167.07 416.96C163.39 425.33 151.5 431.86 142.39 432.73C146.809 432.72 151.219 432.359 155.58 431.65C159.299 431.093 162.786 429.499 165.64 427.05C167.059 425.816 168.174 424.27 168.897 422.533C169.621 420.797 169.933 418.917 169.81 417.04Z" fill="black"/>
</g>
<path d="M100.23 405.65C98.4887 405.161 96.7951 404.515 95.1702 403.72C93.4812 403.08 91.8544 402.287 90.3102 401.35C92.0495 401.842 93.7425 402.484 95.3702 403.27C97.0596 403.913 98.6864 404.71 100.23 405.65Z" fill="#263238"/>
<g opacity="0.2">
<path d="M110.39 401.23C96.7902 398.63 83.1402 396.32 69.4402 394.3L59.2402 397.52C62.1002 402.84 67.7502 406.23 73.6202 407.63C79.4902 409.03 85.6202 408.7 91.6202 408.15C98.2402 407.54 105.04 406.61 110.8 403.29C111.24 403.04 111.74 402.66 111.68 402.15C111.62 401.64 110.98 401.34 110.39 401.23Z" fill="black"/>
</g>
<path d="M43.4502 360.73L60.5902 398.63C60.9369 399.403 61.4982 400.059 62.2073 400.522C62.9164 400.985 63.7435 401.234 64.5902 401.24L114.59 401.89L120.89 398.5L111.02 397.78L95.6602 360.92C95.4211 360.347 95.0188 359.856 94.5032 359.509C93.9876 359.163 93.3815 358.975 92.7602 358.97L44.8702 358.61C44.6148 358.601 44.3612 358.657 44.1335 358.773C43.9058 358.889 43.7116 359.062 43.5694 359.274C43.4271 359.487 43.3415 359.732 43.3206 359.987C43.2998 360.242 43.3444 360.497 43.4502 360.73Z" fill="#E0E0E0"/>
<path d="M43.4502 360.73C43.3684 360.589 43.3173 360.432 43.3002 360.27C43.2686 360.03 43.2947 359.786 43.3765 359.558C43.4582 359.33 43.5932 359.125 43.7702 358.96C44.0435 358.706 44.3978 358.558 44.7702 358.54H49.1602L69.2102 358.61L83.1502 358.68L90.9402 358.73H92.9402C93.6809 358.783 94.3835 359.079 94.9402 359.57C95.4766 360.073 95.873 360.707 96.0902 361.41L96.9102 363.41C101.28 373.88 106.11 385.46 111.23 397.7L110.99 397.53L120.52 398.23H120.86L121.86 398.3L121.01 398.76L114.71 402.15H114.64H114.57L76.6702 401.63L68.2102 401.51C66.8302 401.51 65.5102 401.51 64.1402 401.43C63.4559 401.349 62.7977 401.119 62.212 400.757C61.6263 400.394 61.1273 399.907 60.7502 399.33C58.5202 394.64 56.6602 390.33 54.8502 386.33L46.4702 367.59C45.4702 365.4 44.7502 363.69 44.2302 362.5C43.9802 361.94 43.8002 361.5 43.6602 361.18C43.5202 360.86 43.4802 360.72 43.4802 360.72C43.5656 360.862 43.6424 361.009 43.7102 361.16L44.3302 362.46C44.8702 363.63 45.6502 365.33 46.6602 367.46L55.2002 386.14C57.0102 390.07 58.9502 394.49 61.1302 399.05C61.4695 399.57 61.92 400.009 62.4491 400.334C62.9783 400.659 63.5729 400.862 64.1902 400.93C65.4702 400.99 66.8602 400.98 68.1902 401L76.6502 401.1L114.55 401.56H114.41L120.71 398.16L120.83 398.69H120.49L110.96 398H110.79L110.72 397.85C105.63 385.59 100.81 374.01 96.4502 363.53L95.6402 361.58C95.4619 360.944 95.1166 360.367 94.6402 359.91C94.1648 359.481 93.5591 359.224 92.9202 359.18H90.9202L83.1302 359.11L69.2002 358.97L49.1302 358.73H45.9902H44.7502C44.5521 358.737 44.3576 358.785 44.1785 358.87C43.9994 358.955 43.8395 359.075 43.7086 359.224C43.5776 359.373 43.4782 359.547 43.4166 359.735C43.355 359.924 43.3324 360.123 43.3502 360.32C43.3759 360.458 43.4093 360.595 43.4502 360.73Z" fill="#263238"/>
<path d="M109.51 401.82C109.417 401.69 109.34 401.549 109.28 401.4L108.71 400.18C108.21 399.04 107.53 397.5 106.71 395.64C105.04 391.79 102.77 386.47 100.33 380.55C97.8902 374.63 95.7302 369.26 94.2402 365.35C93.4902 363.35 92.9002 361.8 92.5202 360.69C92.3402 360.18 92.2002 359.76 92.0802 359.41C92.0242 359.261 91.984 359.107 91.9602 358.95C92.0517 359.08 92.1257 359.221 92.1802 359.37L92.7002 360.62C93.1702 361.78 93.8002 363.33 94.5602 365.22C96.1802 369.16 98.3702 374.48 100.78 380.37C103.19 386.26 105.41 391.56 107.03 395.5L108.9 400.1C109.09 400.61 109.25 401.02 109.38 401.36C109.45 401.505 109.494 401.661 109.51 401.82Z" fill="#263238"/>
<path d="M78.5102 379.1C78.5122 379.588 78.3694 380.065 78.0998 380.471C77.8303 380.877 77.4462 381.194 76.9963 381.381C76.5463 381.568 76.0509 381.618 75.5728 381.523C75.0946 381.429 74.6554 381.194 74.3108 380.85C73.9661 380.505 73.7316 380.066 73.637 379.588C73.5424 379.109 73.592 378.614 73.7794 378.164C73.9668 377.714 74.2837 377.33 74.6898 377.061C75.0958 376.791 75.5728 376.648 76.0602 376.65C76.71 376.65 77.3332 376.908 77.7926 377.368C78.2521 377.827 78.5102 378.45 78.5102 379.1Z" fill="white"/>
<path d="M127.16 318.13C127.24 318.13 126.52 319.52 125.51 321.76C122.867 327.607 121.14 333.827 120.39 340.2C120.09 342.65 120.01 344.2 119.92 344.2C119.867 343.842 119.867 343.478 119.92 343.12C119.92 342.43 119.92 341.43 120.06 340.19C120.625 333.737 122.382 327.444 125.24 321.63C125.79 320.52 126.24 319.63 126.63 319.05C126.769 318.723 126.947 318.414 127.16 318.13Z" fill="#263238"/>
<path d="M202.69 344.93C202.512 344.985 202.327 345.015 202.14 345.02L200.55 345.17L194.61 345.67L174.3 347.2H174.04V346.94C173.87 344.24 173.69 341.39 173.51 338.47C173.22 333.37 172.97 328.47 172.89 324.08C172.632 320.125 173.532 316.181 175.48 312.73C176.818 310.403 178.792 308.505 181.17 307.26C181.812 306.938 182.482 306.674 183.17 306.47C183.41 306.395 183.653 306.335 183.9 306.29C183.9 306.37 182.9 306.58 181.25 307.44C178.957 308.728 177.064 310.624 175.78 312.92C173.927 316.336 173.097 320.214 173.39 324.09C173.49 328.5 173.75 333.36 174.04 338.46C174.22 341.38 174.39 344.23 174.56 346.92L174.28 346.68L194.61 345.34L200.61 344.99L202.2 344.93H202.69Z" fill="#263238"/>
<path d="M152.86 362.25C152.552 362.19 152.255 362.082 151.98 361.93C151.636 361.786 151.302 361.619 150.98 361.43C150.549 361.198 150.132 360.941 149.73 360.66C148.666 359.942 147.684 359.111 146.8 358.18C145.731 357.027 144.792 355.759 144 354.4C143.236 353.026 142.629 351.57 142.19 350.06C141.842 348.827 141.627 347.559 141.55 346.28C141.521 345.79 141.521 345.3 141.55 344.81C141.552 344.439 141.578 344.068 141.63 343.7C141.639 343.382 141.7 343.068 141.81 342.77C141.91 342.77 141.74 344.12 141.95 346.25C142.076 347.494 142.32 348.723 142.68 349.92C143.14 351.384 143.746 352.798 144.49 354.14C145.256 355.463 146.157 356.703 147.18 357.84C148.031 358.761 148.965 359.601 149.97 360.35C151.67 361.62 152.91 362.16 152.86 362.25Z" fill="#263238"/>
</svg>
