<svg width="127" height="16" viewBox="0 0 127 16" fill="none" xmlns="http://www.w3.org/2000/svg">
<path d="M10.48 1.1V2.96H6.78V15H4.5V2.96H0.78V1.1H10.48ZM23.8891 1.1V15H21.6091V8.92H15.0691V15H12.7891V1.1H15.0691V7.06H21.6091V1.1H23.8891ZM29.1706 1.1V15H26.8906V1.1H29.1706ZM43.5841 15H41.3041L34.4441 4.62V15H32.1641V1.08H34.4441L41.3041 11.44V1.08H43.5841V15ZM54.2381 15L48.8581 8.78V15H46.5781V1.1H48.8581V7.44L54.2581 1.1H57.1181L51.0781 8.06L57.2181 15H54.2381ZM69.0097 15.14C68.0764 15.14 67.2364 14.98 66.4897 14.66C65.743 14.3267 65.1564 13.86 64.7297 13.26C64.303 12.66 64.0897 11.96 64.0897 11.16H66.5297C66.583 11.76 66.8164 12.2533 67.2297 12.64C67.6564 13.0267 68.2497 13.22 69.0097 13.22C69.7964 13.22 70.4097 13.0333 70.8497 12.66C71.2897 12.2733 71.5097 11.78 71.5097 11.18C71.5097 10.7133 71.3697 10.3333 71.0897 10.04C70.823 9.74667 70.483 9.52 70.0697 9.36C69.6697 9.2 69.1097 9.02667 68.3897 8.84C67.483 8.6 66.743 8.36 66.1697 8.12C65.6097 7.86667 65.1297 7.48 64.7297 6.96C64.3297 6.44 64.1297 5.74667 64.1297 4.88C64.1297 4.08 64.3297 3.38 64.7297 2.78C65.1297 2.18 65.6897 1.72 66.4097 1.4C67.1297 1.08 67.963 0.919999 68.9097 0.919999C70.2564 0.919999 71.3564 1.26 72.2097 1.94C73.0764 2.60667 73.5564 3.52667 73.6497 4.7H71.1297C71.0897 4.19333 70.8497 3.76 70.4097 3.4C69.9697 3.04 69.3897 2.86 68.6697 2.86C68.0164 2.86 67.483 3.02667 67.0697 3.36C66.6564 3.69333 66.4497 4.17333 66.4497 4.8C66.4497 5.22667 66.5764 5.58 66.8297 5.86C67.0964 6.12667 67.4297 6.34 67.8297 6.5C68.2297 6.66 68.7764 6.83333 69.4697 7.02C70.3897 7.27333 71.1364 7.52667 71.7097 7.78C72.2964 8.03333 72.7897 8.42667 73.1897 8.96C73.603 9.48 73.8097 10.18 73.8097 11.06C73.8097 11.7667 73.6164 12.4333 73.2297 13.06C72.8564 13.6867 72.303 14.1933 71.5697 14.58C70.8497 14.9533 69.9964 15.14 69.0097 15.14ZM85.48 1.1V2.96H81.78V15H79.5V2.96H75.78V1.1H85.48ZM90.0491 1.1V9.96C90.0491 11.0133 90.3224 11.8067 90.8691 12.34C91.4291 12.8733 92.2024 13.14 93.1891 13.14C94.1891 13.14 94.9624 12.8733 95.5091 12.34C96.0691 11.8067 96.3491 11.0133 96.3491 9.96V1.1H98.6291V9.92C98.6291 11.0533 98.3824 12.0133 97.8891 12.8C97.3957 13.5867 96.7357 14.1733 95.9091 14.56C95.0824 14.9467 94.1691 15.14 93.1691 15.14C92.1691 15.14 91.2557 14.9467 90.4291 14.56C89.6157 14.1733 88.9691 13.5867 88.4891 12.8C88.0091 12.0133 87.7691 11.0533 87.7691 9.92V1.1H90.0491ZM106.138 1.1C107.618 1.1 108.911 1.38667 110.018 1.96C111.138 2.52 111.998 3.33333 112.598 4.4C113.211 5.45333 113.518 6.68667 113.518 8.1C113.518 9.51333 113.211 10.74 112.598 11.78C111.998 12.82 111.138 13.62 110.018 14.18C108.911 14.7267 107.618 15 106.138 15H101.598V1.1H106.138ZM106.138 13.14C107.764 13.14 109.011 12.7 109.878 11.82C110.744 10.94 111.178 9.7 111.178 8.1C111.178 6.48667 110.744 5.22667 109.878 4.32C109.011 3.41333 107.764 2.96 106.138 2.96H103.878V13.14H106.138ZM126.077 1.1L121.477 9.96V15H119.197V9.96L114.577 1.1H117.117L120.337 7.92L123.557 1.1H126.077Z" fill="black"/>
</svg>
